<svg width="26" height="27" fill="none" xmlns="http://www.w3.org/2000/svg" iconsize="26" class="sc-gswNZR jGNacQ">
                                <path fill="#fff" d="M0 .657h26v26H0z"></path>
                                <g clip-path="url(#orders_svg__a)" fill="#616173">
                                    <path d="M23.653 7.745s-.025-.017-.042-.017L13.609 3.294a1.518 1.518 0 0 0-1.244 0L8.084 5.19l-.872.389-4.865 2.166A.615.615 0 0 0 2 8.312v.05l.702.314.296.135 9.638 4.273.347.161.355-.16 4.959-2.2.71-.314 3.978-1.76.296-.135.702-.313v-.05a.63.63 0 0 0-.347-.568h.017ZM18.745 9.92l-.863.389-4.865 2.166-9.79-4.35 4.865-2.157.872-.389 3.69-1.642a.855.855 0 0 1 .676 0l9.443 4.189-4.028 1.794Z"></path>
                                    <path d="m23.653 7.744-.871.38-4.028 1.795-.863.389-4.865 2.166-.347.16v11.094l.364.17.338-.162 9.74-4.332c.55-.245.905-.795.905-1.396V8.311a.63.63 0 0 0-.347-.567h-.026Zm-.355 10.264a.836.836 0 0 1-.49.753l-9.444 4.205v-9.874l4.959-2.2.71-.313L23.01 8.81l.296-.135v9.333h-.008Zm-4.273-7.438-.71.313.71-.304 3.977-1.769-3.977 1.76Z"></path>
                                    <path d="m13 12.474-9.773-4.35-.871-.38a.615.615 0 0 0-.347.567v9.705c0 .61.355 1.16.905 1.397l9.74 4.315.363.17.339-.162V12.635l-.347-.16H13Zm-.355 10.484-9.452-4.18a.845.845 0 0 1-.482-.762V8.675l.296.135 9.638 4.282v9.874-.008ZM19.016 10.273v2.454a.35.35 0 0 1-.355.347.348.348 0 0 1-.347-.347v-2.234l-.432-.194-9.79-4.324-.871-.39.871-.389.872.39 9.781 4.34.068.034c.127.06.212.186.212.322l-.009-.009Z"></path>
                                </g>
                                <defs>
                                    <clipPath id="orders_svg__a">
                                        <path fill="#fff" transform="translate(2 3.157)" d="M0 0h22v20.739H0z"></path>
                                    </clipPath>
                                </defs>
                            </svg>